PathFileType	4	(X/Y/Z)	\\147.46.242.158\로컬 디스크 (e)\MOCAP Data\Iguana Capture\iguana\Project 2\Capture day 7\Session 2\Take01.trc
DataRate	CameraRate	NumFrames	NumMarkers	Units	OrigDataRate	OrigDataStartFrame	OrigNumFrames
120.0	120.0	15	23	mm	120.0	105	1930
Frame#	Time	ana:head1			ana:head2			ana:bone1			ana:bone2			ana:bone3			ana:tail1			ana:tail2			ana:tail3			ana:tail4			ana:Rforefoot1			ana:Rforefoot2			ana:Rforefoot3			ana:Lforefoot1			ana:Lforefoot2			ana:Lforefoot3			ana:RhindLeg1			ana:RhindLeg2			ana:RhindLeg3			ana:RhindLeg4			ana:LhindLeg1			ana:LhindLeg2			ana:LhindLeg3			ana:LhindLeg4			
		X1	Y1	Z1	X2	Y2	Z2	X3	Y3	Z3	X4	Y4	Z4	X5	Y5	Z5	X6	Y6	Z6	X7	Y7	Z7	X8	Y8	Z8	X9	Y9	Z9	X10	Y10	Z10	X11	Y11	Z11	X12	Y12	Z12	X13	Y13	Z13	X14	Y14	Z14	X15	Y15	Z15	X16	Y16	Z16	X17	Y17	Z17	X18	Y18	Z18	X19	Y19	Z19	X20	Y20	Z20	X21	Y21	Z21	X22	Y22	Z22	X23	Y23	Z23	

1004	8.358	-184.31126	-453.36075	51.52543	-175.72333	-454.17831	53.95783	-152.04391	-453.02081	44.28425	-124.00839	-447.84070	43.18889	-92.96502	-450.92743	40.55118	-57.74761	-459.30414	30.44739	-22.60430	-462.68555	20.70271	22.34408	-463.85959	9.96665	60.09349	-469.08124	6.61422	-163.46751	-444.03000	28.36252	-170.55908	-434.21899	22.00371	-184.59531	-437.29056	8.38767	-148.40253	-466.39352	26.15939	-136.97745	-471.94974	23.76500	-135.22583	-464.60016	23.94152	-83.86220	-442.56674	30.19501	-72.08642	-428.78998	22.04978	-56.42731	-432.42303	12.75524	-73.54658	-425.76187	14.21384	-93.14764	-460.31866	32.42079	-110.03480	-469.10538	32.74178	-109.28359	-486.28741	15.89146	-121.63844	-485.55713	14.34016	
1005	8.367	-186.04994	-453.09573	51.39553	-177.86369	-454.14569	53.62616	-153.81805	-452.97327	43.78584	-125.87740	-447.77634	43.22554	-89.12213	-451.57715	34.44323	-60.04090	-459.84076	30.80317	-24.68572	-463.46765	21.19896	20.18700	-464.20764	10.42762	58.27029	-469.07224	6.63837	-165.26845	-443.79092	27.97565	-171.62839	-434.06158	20.76648	-185.04321	-436.69208	6.28362	-150.02232	-466.50159	26.21507	-138.46300	-471.85876	23.64719	-136.24559	-464.81323	23.54569	-88.74228	-442.66092	32.45000	-73.21951	-428.78998	21.35734	-57.36446	-433.10104	13.31233	-74.92519	-424.97122	15.67361	-95.42593	-460.54575	32.61629	-112.24708	-469.09125	32.14603	-112.25425	-485.04376	13.72945	-124.70129	-484.61105	11.63630	
1006	8.375	-188.28600	-453.05884	50.96326	-180.00121	-454.00745	53.23540	-155.86540	-452.90439	43.60127	-128.09769	-448.02310	42.84233	-96.00893	-450.96344	39.19182	-62.07038	-460.09784	30.82485	-26.69893	-463.87494	21.26201	18.29699	-464.49603	10.76844	56.18977	-468.99554	6.80481	-166.23033	-443.37955	27.20071	-171.84975	-432.99811	19.49859	-184.95987	-436.33978	5.44808	-151.79639	-466.77539	26.09247	-140.36111	-471.76453	23.61101	-137.38412	-465.14688	22.80222	-90.70538	-442.75424	32.36285	-74.41110	-429.44037	22.27038	-58.34282	-433.41843	14.13420	-76.34190	-425.15247	16.92759	-97.49590	-460.58316	32.35662	-114.55884	-469.53384	31.11070	-113.55989	-483.27936	11.25189	-126.38400	-483.88687	8.83564	
1007	8.383	-190.12379	-452.94943	50.31813	-179.72777	-454.25397	50.63410	-157.92778	-452.80054	43.44762	-129.91016	-448.03384	42.53376	-96.60835	-451.59253	38.16065	-64.31044	-460.51770	31.16097	-28.72943	-464.33981	21.36728	16.15886	-465.06628	10.91023	54.31120	-468.92941	6.52318	-167.92842	-443.01666	26.87637	-172.63609	-432.10345	19.89856	-185.05811	-436.09113	5.03278	-153.77206	-466.44250	25.53153	-141.65353	-472.46115	22.21007	-138.64308	-465.59354	21.77126	-92.74712	-443.15198	32.36858	-75.73367	-429.41110	22.34104	-59.41368	-433.15701	14.19539	-77.18776	-425.80655	17.64322	-99.58144	-460.87463	31.93519	-116.33553	-470.10138	30.16223	-114.13518	-482.34338	9.38192	-126.70331	-483.56668	6.48946	
1008	8.392	-192.14694	-452.53394	50.09431	-183.95499	-453.33871	52.61521	-160.15576	-452.95847	43.24379	-131.91379	-448.35983	42.58945	-98.42735	-451.77597	38.00291	-66.12981	-460.56366	30.77852	-30.76117	-464.90338	21.61783	14.37530	-465.36087	10.71554	52.29051	-468.75168	6.66023	-169.13643	-442.93433	26.59951	-167.00635	-430.85648	14.98948	-185.13049	-436.02582	4.91312	-155.96640	-466.34290	25.35525	-143.99496	-471.91516	22.79411	-140.02408	-466.14563	20.51296	-94.76807	-443.41476	32.31814	-77.81989	-430.52875	23.04402	-60.82010	-434.16479	15.91480	-76.85382	-426.43448	17.48796	-101.71387	-461.16989	31.66315	-117.82574	-471.00928	28.71517	-114.08688	-482.70944	8.13456	-126.25866	-483.54736	5.54563	
1009	8.400	-194.11542	-452.18015	50.05620	-186.14481	-452.95267	52.75592	-161.57513	-452.60019	42.75263	-133.78716	-448.58237	42.56305	-102.92190	-451.68323	40.17295	-67.89372	-460.65234	30.10966	-32.71130	-465.23639	21.34794	12.48021	-465.67697	10.70233	50.56229	-468.82327	6.82610	-171.07658	-442.37485	26.63892	-173.87340	-430.41824	19.80341	-185.06398	-436.01514	4.51007	-158.04762	-465.84644	24.33659	-146.18022	-471.47095	22.74594	-141.52872	-466.79556	19.08747	-94.98241	-445.48535	29.31335	-79.84072	-431.73221	23.80402	-62.21815	-434.59659	16.84484	-75.07579	-426.97641	16.27971	-103.54383	-461.62143	31.05745	-119.03436	-472.27023	27.81373	-113.56824	-482.75293	6.92921	-125.83177	-483.63934	5.06676	
1010	8.408	-196.15349	-451.73563	50.20285	-188.58054	-452.63483	53.25167	-163.69637	-452.46326	43.13741	-135.84869	-449.09058	42.32163	-101.63730	-451.93555	36.35998	-70.02747	-460.85745	30.36539	-34.52792	-465.25235	20.81817	10.51192	-465.78702	10.20235	48.61798	-468.63614	6.70344	-172.86658	-442.01651	26.66808	-174.57391	-430.01041	19.67446	-184.84227	-436.01254	4.15963	-160.29724	-465.94006	24.20006	-148.68610	-472.33109	22.99200	-143.15865	-467.53577	17.55494	-99.09595	-443.98132	32.31720	-81.56310	-432.03162	24.13813	-63.69167	-434.76013	17.56042	-77.07092	-427.21515	16.35543	-105.22161	-461.94608	30.83437	-120.22125	-473.31409	27.07386	-113.54772	-483.11557	6.49504	-125.74693	-483.67642	4.92048	
1011	8.417	-198.16965	-451.46243	50.17257	-190.57867	-452.24731	53.74677	-165.57324	-452.39389	43.07684	-137.58463	-449.47015	42.16235	-105.53691	-452.30923	38.60449	-71.91946	-461.02161	30.04668	-36.30241	-465.39554	20.24398	8.55170	-466.00986	9.97049	46.77333	-468.77295	6.69005	-174.21053	-441.81937	27.04882	-175.30481	-429.56427	20.28037	-185.06665	-436.09100	4.05460	-162.33450	-465.97601	23.98692	-151.19884	-472.50558	22.84632	-144.91550	-468.35867	15.97551	-100.70840	-444.50043	32.02081	-83.45667	-432.17743	24.42300	-65.35143	-434.83072	18.60091	-78.47730	-427.27783	16.66656	-106.92730	-462.62146	31.26604	-121.31811	-473.85022	26.78583	-113.21044	-482.54901	5.66310	-125.97268	-484.07983	5.37358	
1012	8.425	-200.03712	-450.92105	50.44447	-189.73674	-452.46149	50.99501	-167.59737	-452.47528	43.51157	-139.48524	-449.95081	42.22365	-105.63754	-453.04877	37.24854	-73.57861	-461.08588	30.03723	-38.19692	-465.46060	20.23322	6.88899	-466.01569	9.46724	44.92102	-468.66989	6.55275	-175.91956	-441.60855	27.05718	-175.71779	-429.25003	20.20582	-186.44785	-435.54269	5.99068	-164.64384	-466.25870	24.31114	-153.54454	-472.75491	22.65996	-146.80087	-469.25671	14.40933	-99.78586	-444.93182	30.16940	-85.30167	-432.78952	25.15829	-66.77752	-434.82584	19.15409	-80.05720	-427.37283	16.75639	-108.51471	-463.10788	30.77621	-122.57948	-475.14255	26.83521	-113.14467	-482.53140	5.55229	-125.91425	-483.97122	5.03591	
1013	8.433	-201.91183	-450.77798	50.80190	-191.48172	-452.10843	50.83400	-169.66591	-453.09244	43.53844	-141.35072	-450.77988	42.33430	-109.58251	-452.99387	39.52636	-75.06353	-460.78088	29.79794	-39.78654	-465.57632	20.18874	5.30374	-465.94180	9.51160	43.30153	-468.58624	6.67195	-177.23199	-441.52829	27.16213	-174.41742	-429.30896	19.09304	-186.46368	-435.51654	6.05242	-166.98332	-466.48154	24.45354	-155.89012	-473.45779	22.69129	-148.81642	-470.22232	12.91656	-102.87083	-447.24973	29.40304	-87.43728	-433.21368	25.57991	-68.98466	-435.47720	21.06155	-80.08210	-427.09149	17.98286	-109.93235	-463.47443	30.61575	-123.23756	-475.80093	25.87934	-113.18235	-482.75049	5.66271	-125.82105	-483.92715	5.05090	
1014	8.442	-203.65372	-450.47336	50.68341	-192.85368	-451.54544	50.32022	-171.97412	-453.84146	45.13582	-143.06207	-451.34705	42.31838	-108.84722	-454.22818	36.37561	-76.46761	-460.48157	29.43683	-41.44041	-465.32932	20.07924	3.60473	-465.83298	9.70293	41.82104	-468.48132	6.48512	-178.87794	-441.39706	27.32699	-174.36990	-429.42807	19.13810	-186.48480	-435.53708	5.98068	-169.28954	-466.71945	24.38475	-158.30568	-473.98511	23.00222	-150.96375	-471.24786	11.55734	-103.38568	-445.62613	29.99478	-91.05850	-435.45450	27.58318	-70.05994	-435.13324	21.01070	-79.78507	-426.75369	19.36708	-111.49376	-464.06760	31.07756	-124.52796	-477.24911	26.06107	-113.16394	-482.76123	5.66699	-125.80846	-484.19083	4.75094	
1015	8.450	-205.47960	-450.20276	50.77197	-194.75713	-451.29300	50.54525	-173.44995	-453.49081	43.69222	-144.84845	-452.14017	42.46347	-111.21011	-454.03790	38.22380	-78.38042	-460.61682	30.18438	-42.97104	-465.19067	20.65355	1.93166	-465.69336	9.70082	40.28246	-468.07529	6.36520	-180.28662	-441.12143	27.99606	-174.71368	-429.51736	19.40870	-186.54134	-435.58322	5.81332	-171.56664	-466.83673	24.76510	-160.81506	-474.45654	23.54457	-153.24449	-472.32584	10.39182	-108.40897	-446.25461	32.99004	-91.88001	-434.34714	26.88305	-71.60896	-435.00531	21.40389	-80.86720	-426.67041	20.13283	-112.93902	-464.61874	30.85252	-124.94309	-477.87143	25.25882	-113.01569	-482.89474	6.43977	-126.05742	-484.35901	4.75584	
1016	8.458	-207.35553	-449.90594	50.61290	-199.24939	-450.91391	53.65124	-175.37990	-453.60120	43.70127	-146.76277	-452.90414	42.93938	-113.50141	-454.51270	39.12288	-80.16334	-460.58862	31.16671	-44.48375	-464.82584	20.90435	0.51925	-465.57672	10.17922	38.92739	-467.91528	6.47991	-181.59277	-441.01813	27.93585	-176.79617	-429.29562	20.81062	-186.54135	-435.58322	5.81335	-173.91994	-466.86212	25.18063	-163.49794	-474.96655	24.16121	-155.66028	-473.44861	9.48014	-109.93279	-446.60349	32.98565	-93.95621	-434.72784	27.49174	-74.77655	-436.33679	24.10266	-82.36112	-426.34720	21.43135	-114.31799	-465.30692	31.38557	-126.08870	-479.31592	25.09424	-113.10152	-482.49261	5.36253	-126.06763	-484.35010	4.78073	
1017	8.467	-209.27287	-449.91882	50.88950	-198.00681	-450.66730	50.74515	-177.40468	-453.95001	44.34279	-148.42021	-453.59753	42.99960	-115.61967	-455.14716	40.02933	-81.75843	-460.49530	31.57266	-45.98923	-464.44333	21.51832	-0.95488	-465.01102	10.32317	37.43638	-467.36411	6.08568	-182.63628	-440.81451	28.35271	-175.73169	-429.74420	19.66678	-186.60356	-435.53201	5.81977	-176.18016	-466.87570	25.79618	-166.31532	-475.51270	25.35658	-158.21272	-474.60864	8.88245	-112.18814	-447.03030	33.85460	-96.25601	-435.20724	27.98956	-76.35205	-436.00192	24.63902	-82.69908	-426.74252	21.69004	-115.73087	-465.75577	31.46144	-126.58344	-480.71600	25.51525	-113.12646	-482.54623	5.37858	-126.03346	-484.48734	4.95577	
1018	8.475	-210.77699	-449.59137	51.00045	-199.73174	-450.39468	50.71672	-179.04326	-453.84781	44.16938	-149.96173	-454.18710	43.06611	-116.42635	-455.50583	39.28102	-82.91308	-460.19656	31.63923	-47.46027	-464.24722	21.93291	-2.48695	-464.72595	10.79427	35.73608	-467.68765	6.63896	-183.73166	-440.71832	27.99574	-176.06708	-429.74377	19.52501	-186.49248	-435.53110	5.67446	-178.60954	-466.45471	26.55684	-168.89523	-475.64383	25.88606	-160.90346	-475.79834	8.65891	-113.20782	-447.57870	33.67114	-98.09079	-435.08783	28.70940	-77.69399	-435.13129	25.24035	-82.58249	-427.61078	22.42049	-117.21320	-466.41492	31.76173	-126.75994	-480.82455	24.35383	-113.02307	-482.44556	5.14934	-126.13165	-484.64862	5.13277	
